<svg xmlns="http://www.w3.org/2000/svg" xmlns:xlink="http://www.w3.org/1999/xlink" width="40" height="40" viewBox="0 0 40 40">
  <defs>
    <clipPath id="clip-Time-icon">
      <rect width="40" height="40"/>
    </clipPath>
  </defs>
  <g id="Time-icon" clip-path="url(#clip-Time-icon)">
    <rect width="40" height="40" fill="#fff"/>
    <path id="Path_13" data-name="Path 13" d="M364.027,301.139a10.5,10.5,0,1,1,0,14.7,10.476,10.476,0,0,1-3.149-7.348A9.528,9.528,0,0,1,364.027,301.139ZM376.1,313.21c1.705.525,1.224-1.224,1.224-1.224l-4.373-4.374s-1.129-5.1-1.575-6.473-1.527-1.057-1.749,0,0,7.348,0,7.348a1.588,1.588,0,0,0,.525,1.224.611.611,0,0,0,.35.175S374.392,312.685,376.1,313.21Z" transform="translate(-350.876 -287.988)" fill="#ff5b13"/>
  </g>
</svg>
